# xmcd
# 
# Track frame offsets:
#     150
#     14653
#     32824
#     51822
#     64427
#     78385
#     94730
#     111769
#     129780
#     151414
#     168893
#     182510
#     199238
#     219727
# 
# Disc length: 3136
# 
# Revision: 2
# Processed by: cddbd v1.5.2PL0 Copyright (c) Steve Scherf et al.
# Submitted via: fre:ac v1.0.27
# 
DISCID=bd0c3e0e
DTITLE=Various Artist - Rec 53
DYEAR=0
DGENRE=Top 40
TTITLE0=Martin Solveig and Dragonette - Hello
TTITLE1=Maxi Priest - Close To You
TTITLE2=Melanie C - I Turn To You (Hex Hector Radio Mix)
TTITLE3=Michel Teló - Ai Se Eu Te Pego (Live)
TTITLE4=Milk and Sugar and Vaya Con Dios - Hey (Nah Neh Nah)
TTITLE5=Mink DeVille - Demasiado Corazon
TTITLE6=Mohombi - Bumpy Ride (Radio Edit)
TTITLE7=Mory Kanté - Yéké Yéké
TTITLE8=Moses - We Just
TTITLE9=Negrocan - Cada Vez (Radio Edit)
TTITLE10=Nelly Furtado - Forca
TTITLE11=Nice Device - Cool Corona (Could You Be Like E...)
TTITLE12=No Mercy - Where Do You Go? (Radio Mix)
TTITLE13=Owen Paul - My Favourite Waste Of Time
EXTD=OTS
EXTT0=
EXTT1=
EXTT2=
EXTT3=
EXTT4=
EXTT5=
EXTT6=
EXTT7=
EXTT8=
EXTT9=
EXTT10=
EXTT11=
EXTT12=
EXTT13=
PLAYORDER=
